#!OML:ASF Y:\EmotionMaleHayes\Project 1\Capture day 1\Session 1\Male1.ASF
:FULLY-SPECIFIED
:DEGREES
518
root 12.4251 16.5913 0.160397 104.276 74.0344 104.895
lowerback 6.67207 -1.79108 -20.027
upperback 2.56197 -3.40975 -2.65081
thorax 0.0699052 -1.75568 8.50478
lowerneck -23.2034 3.40074 3.91739
upperneck 20.5716 3.88692 -1.88021
head 10.5498 1.87608 -0.705208
rclavicle 1.94809e-014 2.80286e-014
rhumerus -53.8756 -6.8052 -75.5233
rradius 26.2466
rwrist 5.66313
rhand -9.45401 -29.8788
rfingers 7.12502
rthumb 16.5094 -59.1964
lclavicle 1.94809e-014 2.80286e-014
lhumerus -5.67249 -17.4429 79.8426
lradius 47.185
lwrist 4.88974
lhand -20.7177 -28.659
lfingers 7.12502
lthumb 5.64692 1.24572
rfemur -25.2834 -5.40637 -1.14137
rtibia 8.66172
rfoot -11.1735 -1.77122
rtoes 8.64171
lfemur 19.9279 2.58032 -36.7937
ltibia 5.48306
lfoot -19.4276 -4.01357
ltoes -8.10908
519
root 12.6268 16.5442 0.163885 105.344 73.5652 105.719
lowerback 6.52017 -1.92694 -20.3622
upperback 2.56101 -3.56467 -2.69802
thorax 0.223165 -1.84552 8.62804
lowerneck -23.2887 3.36515 3.98245
upperneck 20.3389 3.82003 -1.95673
head 10.4813 1.83833 -0.753966
rclavicle -3.19174e-014 -3.34952e-014
rhumerus -54.0505 -7.69136 -74.7254
rradius 25.9428
rwrist 5.94791
rhand -9.74286 -29.8979
rfingers 7.12502
rthumb 16.2313 -59.2384
lclavicle -3.19174e-014 -3.34952e-014
lhumerus -5.44947 -17.4235 79.6894
lradius 47.9249
lwrist 5.05388
lhand -21.3098 -28.9089
lfingers 7.12502
lthumb 5.07521 1.0103
rfemur -25.7562 -6.15681 -1.68189
rtibia 8.03184
rfoot -11.8539 -0.900917
rtoes 10.0162
lfemur 20.3064 2.36213 -37.141
ltibia 5.75251
lfoot -19.6164 -4.26322
ltoes -8.98952
520
root 12.823 16.4955 0.166029 106.142 73.3089 106.26
lowerback 6.4907 -2.01101 -20.4458
upperback 2.48601 -3.68336 -2.70854
thorax 0.197634 -1.897 8.66479
lowerneck -23.7225 3.33529 4.21145
upperneck 20.4968 3.73675 -2.18381
head 10.6249 1.7855 -0.881001
rclavicle -4.73853e-014 -9.74045e-015
rhumerus -54.3514 -8.38171 -73.9825
rradius 25.7839
rwrist 6.29544
rhand -9.32506 -30.2908
rfingers 7.12502
rthumb 16.6335 -59.598
lclavicle -4.73853e-014 -9.74045e-015
lhumerus -5.42546 -17.2409 79.6605
lradius 48.8404
lwrist 5.32983
lhand -21.5481 -29.0731
lfingers 7.12502
lthumb 4.84514 0.851459
rfemur -26.4745 -7.21458 -1.78815
rtibia 8.16127
rfoot -11.6028 0.200413
rtoes 10.0598
lfemur 20.6069 1.97087 -37.431
ltibia 6.15414
lfoot -19.8098 -4.17345
ltoes -10.6168
521
root 13.0231 16.4483 0.164281 106.276 73.1352 106.141
lowerback 6.46898 -2.05363 -20.4818
upperback 2.36741 -3.75689 -2.67912
thorax 0.104485 -1.91882 8.72118
lowerneck -23.2113 3.43349 3.7925
upperneck 19.8362 3.90077 -1.6961
head 10.277 1.89058 -0.620473
rclavicle -1.55797e-014 7.95139e-015
rhumerus -54.6223 -8.87619 -73.212
rradius 25.5407
rwrist 6.59174
rhand -8.83666 -30.7296
rfingers 7.12502
rthumb 17.1037 -59.9968
lclavicle -1.55797e-014 7.95139e-015
lhumerus -5.46174 -16.9854 79.7275
lradius 49.5225
lwrist 5.4396
lhand -21.8235 -29.4442
lfingers 7.12502
lthumb 4.57919 0.486324
rfemur -27.4001 -8.11635 -1.73691
rtibia 9.00389
rfoot -12.167 1.22831
rtoes 8.99127
lfemur 20.8958 1.59105 -37.7875
ltibia 6.57259
lfoot -20.1012 -3.94992
ltoes -11.2027
522
root 13.2296 16.4039 0.165452 105.905 72.9952 105.593
lowerback 6.40982 -2.06018 -20.613
upperback 2.30982 -3.76925 -2.6229
thorax 0.091502 -1.92278 8.85232
lowerneck -23.8308 3.41033 3.99709
upperneck 20.1606 3.85556 -2.01684
head 10.5169 1.84013 -0.766815
rclavicle 6.80837e-015 2.22639e-014
rhumerus -54.7973 -9.02684 -72.7684
rradius 25.4918
rwrist 6.63281
rhand -8.68342 -31.0332
rfingers 7.12502
rthumb 17.2512 -60.2875
lclavicle 6.80837e-015 2.22639e-014
lhumerus -5.47955 -16.7285 79.7802
lradius 50.1075
lwrist 5.59894
lhand -22.0576 -29.6221
lfingers 7.12502
lthumb 4.35312 0.313153
rfemur -28.1675 -8.31079 -1.81504
rtibia 10.0268
rfoot -11.6326 1.61109
rtoes 9.79229
lfemur 21.2774 1.38901 -38.0509
ltibia 6.96565
lfoot -20.366 -3.88105
ltoes -11.2038
523
root 13.4344 16.3634 0.169667 105.544 72.8267 105.155
lowerback 6.47504 -2.02881 -20.7616
upperback 2.26135 -3.76058 -2.59315
thorax 0.0114897 -1.90914 8.97035
lowerneck -23.6082 3.3917 3.78482
upperneck 19.8293 3.87397 -1.8949
head 10.3491 1.84809 -0.689683
rclavicle -2.84262e-014 -5.06901e-014
rhumerus -54.91 -9.19375 -72.4009
rradius 25.3718
rwrist 6.7675
rhand -8.76453 -31.227
rfingers 7.12502
rthumb 17.1731 -60.4881
lclavicle -2.84262e-014 -5.06901e-014
lhumerus -5.6164 -16.6083 79.8579
lradius 50.7971
lwrist 6.12328
lhand -22.1129 -29.5391
lfingers 7.12502
lthumb 4.2997 0.397235
rfemur -28.6927 -8.22485 -1.9918
rtibia 11.1947
rfoot -11.4855 1.55519
rtoes 10.2218
lfemur 21.7425 1.29037 -38.2372
ltibia 7.47297
lfoot -20.6161 -3.98496
ltoes -12.0108
524
root 13.6402 16.3218 0.175389 105.336 72.728 104.872
lowerback 6.57166 -1.97958 -20.7789
upperback 2.17664 -3.7363 -2.56272
thorax -0.141984 -1.87826 9.02174
lowerneck -23.5363 3.32279 3.7526
upperneck 19.7411 3.80241 -1.94299
head 10.3024 1.80722 -0.714175
rclavicle 2.98177e-015 9.68081e-014
rhumerus -54.9471 -9.63371 -71.831
rradius 24.9121
rwrist 7.25013
rhand -8.89887 -31.302
rfingers 7.12502
rthumb 17.0438 -60.5743
lclavicle 2.98177e-015 9.68081e-014
lhumerus -6.03795 -16.4971 80.0704
lradius 51.3433
lwrist 5.95985
lhand -22.6011 -29.8577
lfingers 7.12502
lthumb 3.82832 0.0876352
rfemur -29.2745 -7.87808 -2.12976
rtibia 12.8002
rfoot -11.4814 0.991048
rtoes 10.2791
lfemur 22.1765 1.03782 -38.4217
ltibia 8.05838
lfoot -20.899 -3.88943
ltoes -13.2654
